<svg viewBox="0 0 120 81.5" xmlns="http://www.w3.org/2000/svg"><path d="M111.7 20.5H93v-5.8c0-3.4-2.1-6.2-5.5-6.2H70.2c-3.4 0-7.2 2.8-7.2 6.2v5.8H46c-3.7 0-7 3-7 6.7v43.3c0 3.7 3.3 7 7 7h65.7c3.7 0 6.3-3.3 6.3-7V27.2c0-3.7-2.6-6.7-6.3-6.7zM70 14.7c0-.5-.3-1.2.2-1.2h17.3c.5 0 .5.7.5 1.2v5.8H70v-5.8zM78.9 68c-10.6 0-19.1-8.6-19.1-19.1 0-10.6 8.6-19.1 19.1-19.1 10.6 0 19.1 8.6 19.1 19.1S89.4 68 78.9 68z" fill="#fff"/><path d="M84 35.5H74v8h-8v10h8v10h10v-10h8v-10h-8zM7 65.5l-5.1 9.2 1.6-1L7.8 66c.7.3 1.5.5 2.3.6 2.2.1 4.2-1.1 5.3-3l11.1-19.8c.5-.8.6-1.8.3-2.7s-.9-1.7-1.7-2.1l-.4-.2 2.9-5.1 2.5 1.4c.3.2.6.3 1 .3.8 0 1.5-.4 1.9-1.1.6-1 .2-2.3-.8-2.8l-8.4-4.7c-.3-.2-.6-.3-1-.3-.8 0-1.5.4-1.9 1.1-.6 1-.2 2.3.8 2.8l2.5 1.4-2.9 5.1-.3-.3c-.5-.3-1.1-.4-1.6-.5-1.3 0-2.5.7-3.2 1.8L5.1 57.7l-.2.5c-1.2 2.6-.3 5.7 2.1 7.3zm11.2-9.3l-.6 1.1-2.4-1.3c-.3-.2-.4-.6-.2-.9s.6-.4.9-.2l2.3 1.3zm-1.7-3.7c.2-.3.6-.4.9-.2l2.3 1.3-.6 1.1-2.3-1.3c-.4-.2-.5-.6-.3-.9zm.2 6.4l-.6 1.1-2.3-1.3c-.3-.2-.4-.6-.2-.9s.6-.4.9-.2l2.2 1.3zm-1.5 2.7l-.6 1.1-2.3-1.3c-.3-.2-.4-.6-.2-.9s.6-.4.9-.2l2.2 1.3zm1.9-23.1c.4-.8 1.3-1.3 2.2-1.3.4 0 .8.1 1.1.3l1.3.7 3.9-7-3.4-1.9c-.5-.3-.6-.9-.4-1.3.3-.5.9-.6 1.3-.4l8.4 4.7c.5.3.6.9.4 1.3-.2.3-.5.5-.9.5-.2 0-.3 0-.5-.1l-3.4-1.9-3.9 7.1 1.3.7c.6.3 1 .8 1.2 1.5.1.5.1 1 0 1.4l-2.3-1.3c-.3-.2-.7-.1-.9.2s-.1.7.2.9l2.3 1.3-.9 1.6-2.3-1.3c-.3-.2-.7-.1-.9.2s-.1.7.2.9l2.3 1.3-.9 1.6-2.3-1.3c-.3-.2-.7-.1-.9.2s-.1.7.2.9l2.3 1.3-.9 1.6-2.3-1.3c-.3-.2-.7-.1-.9.2s-.1.7.2.9l2.3 1.3-.1.2-8.1-4.7 5.1-9z" fill="#fff"/></svg>