<svg viewBox="246 663 120 114.7" xmlns="http://www.w3.org/2000/svg"><path d="M341.6 735c2.8-13.3-5-26.4-17.5-30.6l1.7-3.5c.1-.2 0-.4-.2-.5l-2.1-1.1 10.6-21.2-4.6-2.3 1.1-2.2 2.7-1.9.1-3.9-7.6-3.7-3 2.5.4 3-1.2 2.4-6-3-10.6 21.2-1.5-.7c-.2-.1-.4 0-.5.2l-6.3 12.5c-.1.2 0 .4.2.5l1.4.7-2.5 5-11.4 4.6 4.2 10.3 6.8-2.7-2.9 7 10.2 4.4 2.7-6.4.5.3 2.4 6.1 10.2-4.2-4.4-11 2.1-4.2 2.2 1.1c.2.1.4 0 .5-.2l.9-1.7c9.4 2.5 15.3 12 13.3 21.7-2.1 10-11.9 16.4-21.9 14.3-3.6-.7-6.8-2.5-9.2-5h9.5v-5.2c0-1.3-1-2.3-2.3-2.3h-33.3c-1.3 0-2.3 1-2.3 2.3v5.2h18.3c3.4 6 9.2 10.7 16.4 12.6v9.6h-39.9c-.7 0-1.3.5-1.5 1.2l-2.5 9.4c-.1.2 0 .4.1.5s.3.3.5.3H340c.2 0 .4-.1.5-.3.1-.1.1-.3.1-.5l-2.5-9.4c-.2-.7-.8-1.2-1.5-1.2h-11.2v-10.6c7.9-3.4 14.3-10.5 16.2-19.4zM310 699.8c0-.1 0-.3-.1-.4 0-.1 0-.1-.1-.2-.1-1.5.9-2.8 2.4-2.9.6-.1 1.1.1 1.6.3.9.4 1.6 1.1 1.7 2.2.3 1.6-.8 3.1-2.3 3.3-1.4.3-3-.7-3.2-2.3z" fill="#fff"/></svg>