<?xml version="1.0" encoding="utf-8"?>
<!-- Generator: Adobe Illustrator 18.1.0, SVG Export Plug-In . SVG Version: 6.00 Build 0)  -->
<svg version="1.1" id="Layer_1" xmlns="http://www.w3.org/2000/svg" xmlns:xlink="http://www.w3.org/1999/xlink" x="0px" y="0px"
	 width="67px" height="67px" viewBox="272.5 362.5 67 67" enable-background="new 272.5 362.5 67 67" xml:space="preserve">
<path fill="#B10353" d="M272.5,362.5h28l39,38.7v28.3L272.5,362.5z"/>
<path fill="#FFFFFF" d="M301.4,370l1,1l-6.7,6.6l2.7,2.7l-0.9,0.9l-3.7-3.8L301.4,370L301.4,370z"/>
<path fill="#FFFFFF" d="M300.9,379.2c1.6-1.6,3.7-1.8,5-0.5c1.4,1.4,1.1,3.3-0.6,5l-0.3,0.2l-3.3-3.4c-1,1-1.1,2.4-0.1,3.5
	c0.5,0.5,1.1,0.8,1.7,1l-0.4,1c-0.8-0.2-1.6-0.7-2.2-1.3C298.9,382.8,299.4,380.7,300.9,379.2L300.9,379.2z M304.9,382.2
	c0.7-0.8,1.1-1.9,0.3-2.7c-0.8-0.8-1.9-0.6-2.7,0.2L304.9,382.2z"/>
<path fill="#FFFFFF" d="M308.6,381.6l1,1l-2.6,5.5l5.5-2.6l1,1l-7.5,3.2l-0.8-0.8L308.6,381.6L308.6,381.6z"/>
<path fill="#FFFFFF" d="M311.3,389.7c1.6-1.6,3.7-1.8,5-0.5c1.4,1.4,1.1,3.3-0.6,5l-0.2,0.3l-3.4-3.5c-1,1-1.1,2.4-0.1,3.5
	c0.5,0.5,1.1,0.8,1.7,1l-0.4,1c-0.8-0.2-1.6-0.7-2.2-1.3C309.3,393.4,309.8,391.2,311.3,389.7z M315.2,392.7
	c0.7-0.8,1.1-1.9,0.3-2.7s-1.9-0.6-2.7,0.2L315.2,392.7z"/>
<path fill="#FFFFFF" d="M322.3,390.2l1,1l-6.8,6.6c-0.4,0.4-0.4,0.7-0.1,0.9c0.1,0.1,0.3,0.2,0.4,0.3l-0.6,1c-0.3-0.2-0.7-0.4-1-0.7
	c-0.7-0.8-0.7-1.5,0-2.2L322.3,390.2L322.3,390.2z"/>
<path fill="#FFFFFF" d="M327.8,398.9l-2.6-0.9l0.5-1.1l3.4,1.2l0.8,0.8l-7.6,7.5l-1-1L327.8,398.9L327.8,398.9z"/>
</svg>
