<?xml version="1.0" encoding="utf-8"?>
<!-- Generator: Adobe Illustrator 18.1.0, SVG Export Plug-In . SVG Version: 6.00 Build 0)  -->
<svg version="1.1" xmlns="http://www.w3.org/2000/svg" xmlns:xlink="http://www.w3.org/1999/xlink" x="0px" y="0px"
	 viewBox="0 0 180 180" enable-background="new 0 0 180 180" xml:space="preserve">
<g id="Isolation_Mode" display="none">
	<path display="inline" fill="#00A1C1" d="M45.5,98.2c-15.8,15.8-14.6,42.5,2.5,59.6c17.2,17.2,43.9,18.3,59.6,2.5
		c15.8-15.8,52.5-57.9,24.1-86.3C103.4,45.7,61.3,82.4,45.5,98.2z M86.9,75.8c7.4-3.5,14.2-5.3,20.3-5.3c0.4,0,0.8,0,1.1,0
		c6,0.2,11.3,2.2,16.1,6.1l-5.8,5.8c-4-1.8-8.8-1.1-12.1,2.2c-3.3,3.3-4,8.1-2.1,12.1l-14.1,14.1C83,103.1,77.2,94,73,83.9
		C77.4,80.9,82.1,78,86.9,75.8z M117.6,95.7c-1.1,1.1-2.6,1.6-4,1.5c-1.1-0.1-2.3-0.6-3.1-1.5c-1-1-1.5-2.4-1.5-3.7
		c0-1.2,0.5-2.5,1.5-3.4c0.9-0.9,2.2-1.4,3.4-1.5c1.3,0,2.7,0.4,3.7,1.5c0.9,0.9,1.4,2,1.5,3.1C119.2,93.2,118.7,94.6,117.6,95.7z
		 M102.9,155.5c-5.9,5.9-13.9,9.1-22.7,9.1c-10,0-19.9-4.2-27.3-11.6c-14.5-14.5-15.6-36.9-2.5-50c3.9-3.9,9.8-9.4,16.9-14.9
		c5,11.3,11.8,21.4,20.5,30.1c8.7,8.7,18.7,15.5,30.1,20.5C112.3,145.7,106.7,151.7,102.9,155.5z M130.1,119
		c-2.3,4.8-5.1,9.5-8.1,13.9c-10.1-4.2-19.2-10-26.9-17.2l14-14c4,2.1,9.1,1.4,12.5-1.9c3.4-3.4,4-8.5,1.9-12.5l5.7-5.7
		c3.9,4.8,5.9,10,6.1,16.1C135.6,103.9,133.9,111.2,130.1,119z M139,33.9c-1.1-3.4-1.6-6.6-1.4-9.6c0.3-6,3-10.5,4.9-13.4
		c1.9-2.9,3.2-4.4,3.2-4.4c0,0-1.6,1.1-4.1,3.7c-2.4,2.6-6.1,6.8-7.5,13.6c-0.7,3.4-0.6,7.3,0.2,11.2c0.8,3.9,2.1,7.9,3.2,11.9
		c1.1,4,1.7,8,0.8,11.7c-0.8,3.7-3.3,7.3-6.5,10.5l5.3,5.3c3.8-3.9,7.2-8.8,8.1-14.5c1-5.6-0.4-10.8-1.9-14.9
		C141.7,40.9,140,37.3,139,33.9z"/>
</g>
<g id="Layer_2" display="none">
	<g display="inline">
		<path fill="#00A1C1" d="M21.3,127.6H158c2,0,4-1.9,4-3.9V40.4c0-2-2-3.8-4-3.8H21.3c-2,0-3.3,1.8-3.3,3.8v83.3
			C18,125.7,19.3,127.6,21.3,127.6z M27,45.6h126v73H27V45.6z"/>
		<path fill="#00A1C1" d="M174.9,131.6h-59c-0.1,1-1.1,2-2.4,2H65.8c-1.2,0-2.2-1-2.3-2h-59c0,0-0.4,0.2-0.4,0.4v2.6
			c0,4.3,3.8,8,8.1,8h155.1c4.3,0,7.8-3.7,7.8-8V132C175,131.7,174.9,131.6,174.9,131.6z"/>
		<polygon fill="#00A1C1" points="84,60.7 95.4,104.4 102.9,90.6 116.6,104.2 127.5,93.4 113.8,79.7 127.6,72.1 		"/>
	</g>
</g>
<g id="Layer_3">
	<g>
		<g>
			<g>
				<g>
					<g>
						<path fill="#FFFFFF" d="M84.5,142.1H78c-1.2,0-2.1,1-2.1,2.1v2.5c0,1.2,1,2.1,2.1,2.1h6.5c1.2,0,2.1-1,2.1-2.1v-2.5
							C86.6,143.1,85.7,142.1,84.5,142.1z"/>
						<path fill="#00A1C1" d="M123,136.9H39.5V26.1H123l0,49.9c3.9,0.1,6.3,2.6,6.9,2.5c0.4-0.1,1.1-0.7,2.3-1.3V24.1
							c0-4.7-3.9-8.5-8.6-8.5H39c-4.7,0-8.6,3.8-8.6,8.5v122.3c0,4.7,3.9,8.5,8.6,8.5h84.5c4.7,0,8.6-3.8,8.6-8.5v-20.2l-9.1,2.1
							V136.9z M86.6,146.8c0,1.2-1,2.1-2.1,2.1H78c-1.2,0-2.1-1-2.1-2.1v-2.5c0-1.2,1-2.1,2.1-2.1h6.5c1.2,0,2.1,1,2.1,2.1V146.8z"
							/>
						<path fill="#00A1C1" d="M83,62.9H68.2V38h25v14.3c0.2,0,0.3,0,0.5,0c1.8,0,3.4,0.5,4.8,1.4V35.4c0-1.5-1.2-2.6-2.7-2.6H65.6
							c-1.5,0-2.7,1.2-2.7,2.6v30.1c0,1.5,1.2,2.6,2.7,2.6h18.6c-0.5-1.9-0.8-3.2-1-3.8C83.1,63.9,83,63.4,83,62.9z"/>
					</g>
					<g>
						<path fill="#00A1C1" d="M90,44.2c0,0.9-0.4,1.7-1.2,2.5l-0.1,0.1L81.9,54c-1.4,1.5-2.7,2.7-3.7,3.5c-1,0.8-1.7,1.2-2.2,1.2
							c-0.4,0-1-0.2-1.6-0.6c-0.7-0.4-1.1-0.8-1.3-1.3c-0.2-0.4-0.3-1.1-0.5-2.3c-0.1-1.2-0.2-2.5-0.2-3.8c0-0.8,0.3-1.4,0.9-2.1
							c0.6-0.6,1.3-1,2.1-1c0.7,0,1.2,0.7,1.3,2c0,0.2,0,0.3,0,0.3c0.1,1,0.3,1.7,0.4,2.1c0.2,0.4,0.4,0.6,0.6,0.6
							c0.1,0,0.3-0.1,0.6-0.4c0.3-0.2,0.7-0.6,1.1-1l7-6.9c0.6-0.6,1.1-1,1.6-1.3c0.5-0.3,0.9-0.5,1.2-0.5c0.2,0,0.4,0.1,0.5,0.3
							c0.1,0.2,0.2,0.5,0.2,0.9L90,44.2L90,44.2z"/>
					</g>
				</g>
			</g>
			<polygon fill="#F3F3F3" points="137.8,156.8 114.6,158.1 106,125.1 137.8,124.5 			"/>
			<path fill="#00A1C1" d="M148.6,107.3l-6.4-23.8c-1-3.7-5-5.9-8.9-4.8c-0.5,0.1-1,0.4-1.4,0.6c-0.7,0.4-1.4,0.8-2,1.4
				c-0.6-0.8-1.3-1.5-2.2-2c-0.9-0.5-1.9-0.9-2.9-1c-0.9-0.1-1.9-0.1-2.8,0.2c-0.4,0.1-0.7,0.2-1,0.4c-1.3,0.6-2.5,1.5-3.2,2.6
				c-1.7-1.3-4.1-1.8-6.4-1.2c-1.2,0.3-2.3,0.9-3.1,1.7l-1.6-5.7l-1-3.7l-3-11.2c-1-3.6-4.9-5.7-8.8-4.6c-3.9,1.1-6.3,4.8-5.3,8.4
				l3,11.2l1,3.7l2.4,9l1,3.7l4.7,17.5l-4.1-1.9c-0.8-0.3-7.6-2.8-12-1.6c-0.8,0.2-1.5,0.5-2.1,1c-2.8,2-2.9,4.3-2.7,5.5
				c0.2,1.7,1.4,3.3,3.2,4.4c0.6,0.4,1.3,0.7,2,1c1.6,0.6,3.1,1,4.6,1.3c0.2,0,0.4,0.1,0.5,0.1c2.3,0.5,4.1,0.9,5.2,2.1
				c6.8,7.9,14.2,9.2,17.5,9.3l0.7,2.7l3.7-1l-1.1-4.1c-0.2-0.9-1.1-1.5-2.1-1.4c-0.3,0-8.5,0.8-15.9-7.9c-1.9-2.2-4.5-2.8-7.3-3.3
				c-1.5-0.3-3-0.6-4.5-1.2c-1.9-0.7-2.7-1.7-2.8-2.3c-0.1-0.8,0.8-1.5,1.2-1.8c0.2-0.1,0.4-0.3,0.8-0.3c2.7-0.7,7.8,0.8,9.5,1.4
				l5.3,2.4c0.4,0.2,0.9,0.2,1.3,0.1l2-0.5c1-0.3,1.6-1.3,1.4-2.4L92.1,63.4c-0.4-1.5,0.7-3.2,2.6-3.7c1.8-0.5,3.7,0.3,4.1,1.9
				l7.2,26.7c0.3,1,1.3,1.6,2.4,1.4c1-0.3,1.6-1.3,1.4-2.4c-0.4-1.7,0.7-3.4,2.5-3.9c1.8-0.5,3.7,0.5,4.1,2.1l0.3,1
				c0.3,1,1.3,1.6,2.4,1.4c1-0.3,1.6-1.3,1.4-2.4c-0.4-1.7,0.7-3.4,2.5-3.9c1.8-0.5,3.7,0.4,4.1,2.1l0.4,1.6c0.3,1,1.3,1.6,2.4,1.4
				l0.4-0.1c0.7-0.2,1.3-0.8,1.4-1.5c0.2-1.3,1.2-2.3,2.6-2.7c1.8-0.5,3.7,0.5,4.1,2.1l6.4,23.8c1.4,5.1,0.6,9.3-0.9,10.3
				c-0.7,0.5-1.1,1.3-0.8,2.1l1.2,4.4l3.7-1l-0.9-3.2C149.6,118.2,150.2,113,148.6,107.3z"/>
			<path fill="#00A1C1" d="M144.4,125.1l-27.1,7.3l-3.7,1l-2,0.5c-1,0.3-1.6,1.3-1.4,2.4l0.4,1.6l1,3.7l1.4,5.3l1,3.7l2.8,10.5
				c0.3,1,1.3,1.6,2.4,1.4c1-0.3,1.6-1.3,1.4-2.4l-6.2-23l35.7-9.6l6.2,23c0.3,1,1.3,1.6,2.4,1.4c1-0.3,1.6-1.3,1.4-2.4l-6.7-24.9
				c-0.3-1-1.3-1.6-2.4-1.4l-2.8,0.8L144.4,125.1z"/>
		</g>
	</g>
</g>
</svg>
