<svg viewBox="0 0 120 110.5" xmlns="http://www.w3.org/2000/svg"><path d="M11.8 33.7h7.5v10.8h6.4V33.7h8.7c1.1 1.7 3 2.8 5.1 2.8 3.3 0 6-2.7 6-6s-2.7-6-6-6c-2.2 0-4 1.1-5.1 2.8H11.8c-1.8 0-3.2 1.4-3.2 3.2s1.4 3.2 3.2 3.2zM11.8 57.2h7.5v10.5h6.4V57.2h8.7c1.1 1.7 3 2.8 5.1 2.8 3.3 0 6-2.7 6-6s-2.7-6-6-6c-2.2 0-4 1.1-5.1 2.8H11.8c-1.8 0-3.2 1.4-3.2 3.2 0 1.7 1.4 3.2 3.2 3.2z" fill="#fff"/><path d="M94.3 2.2H30.5c-6.2 0-11.2 5-11.2 11.2v7.5h6.4v-7.5c0-2.7 2.2-4.9 4.9-4.9h63.8c2.7 0 4.9 2.2 4.9 4.9v5.5h-49v72h49v5.5c0 2.7-2.2 4.9-4.9 4.9H30.5c-2.7 0-4.9-2.2-4.9-4.9V79.9H34c.9 2.1 3.1 3.6 5.5 3.6 3.3 0 6-2.7 6-6s-2.7-6-6-6c-1.8 0-3.5.8-4.6 2.1H11.8c-1.8 0-3.2 1.4-3.2 3.2S10 80 11.8 80h7.5v16.5c0 6.2 5 11.2 11.2 11.2h63.8c6.2 0 11.3-5 11.3-11.2v-83c-.1-6.3-5.1-11.3-11.3-11.3zm4.9 19.6v21.1H53V21.8h46.2zm0 23.9v20.8H53V45.7h46.2zM53 88.1V69.4h46.2v18.7H53z" fill="#fff"/><path d="M70.5 28.2l-.1.1-4.2 4.4c-.9.9-1.6 1.7-2.3 2.2-.6.5-1.1.8-1.3.8-.3 0-.6-.1-1-.4s-.7-.5-.8-.8c-.1-.2-.2-.7-.3-1.4s-.1-1.5-.1-2.4c0-.5.2-.9.6-1.3s.8-.6 1.3-.6c.4 0 .7.4.8 1.2v.2c.1.6.2 1.1.2 1.3.1.2.2.4.4.4.1 0 .2-.1.4-.2s.4-.3.7-.6l4.3-4.3.3-.3c-1.4-1.6-3.5-2.6-5.8-2.6-4.2 0-7.7 3.4-7.7 7.7s3.4 7.7 7.7 7.7c4.2 0 7.7-3.4 7.7-7.7 0-1.2-.3-2.4-.8-3.4zM70.5 52.4l-.1.1-4.2 4.4c-.9.9-1.6 1.7-2.3 2.2-.6.5-1.1.8-1.3.8-.3 0-.6-.1-1-.4s-.7-.5-.8-.8c-.1-.2-.2-.7-.3-1.4s-.1-1.5-.1-2.4c0-.5.2-.9.6-1.3s.8-.6 1.3-.6c.4 0 .7.4.8 1.2v.2c.1.6.2 1.1.2 1.3.1.2.2.4.4.4.1 0 .2-.1.4-.2s.4-.3.7-.6l4.3-4.3.3-.3c-1.4-1.6-3.5-2.6-5.8-2.6-4.2 0-7.7 3.4-7.7 7.7 0 4.2 3.4 7.7 7.7 7.7 4.2 0 7.7-3.4 7.7-7.7 0-1.3-.3-2.4-.8-3.4z" fill="#fff"/></svg>