<svg xmlns="http://www.w3.org/2000/svg" viewBox="0 0 150 150"><g fill="#FFF"><path d="M99.8 91.9c-3-3-7.3-3.7-9.5-1.5l-1.2 1.2c-2.2 2.2-1.5 6.4 1.5 9.5l7.1 7.1c3 3 7.3 3.7 9.5 1.5l1.2-1.2c2.2-2.2 1.5-6.4-1.5-9.5l-7.1-7.1zM88.5 104.3c-3-3-7.3-3.6-9.6-1.4l-1.2 1.2c-2.3 2.3-1.7 6.6 1.4 9.6l7.1 7.1c3 3 7.3 3.6 9.6 1.4L97 121c2.3-2.3 1.7-6.6-1.4-9.6l-7.1-7.1z"/><path d="M130.4 28.4c-7-7.1-15.1-10.6-24.1-10.4-17.2.3-32 14.2-35.8 18.1-5-4.5-9.6-8.5-12-10.7-7.7-6.8-29.4-12.2-44.2 8-17.1 23.2 7 48.1 9.3 50.4-.7 3.4-.4 8.2 3.7 12.2 2.9 2.9 6.2 3.9 9.1 4 .2 2.9 1.3 6.2 4.3 9.2 3 3 6.4 4 9.3 4 .3 3.1 1.5 7 5.1 10.1 2.9 2.5 5.8 3.4 8.3 3.4 1.2 0 2.3-.2 3.3-.5l.6.6 7.1 7.1c3 3 7.3 3.6 9.6 1.3l1.2-1.2c2.3-2.3 1.7-6.6-1.3-9.6l-7.1-7.1c-3-3-7.3-3.6-9.6-1.3l-1.2 1.3c-.4.4-.7.9-.9 1.4 0 0-1.8 1.5-4.8-1.1-3.5-3-2.3-7.8-2.2-7.9l.1-.2 18.3-16.9c1.6-1.5 1.7-3.9.2-5.5s-3.9-1.7-5.5-.2l-19.4 18c-.3.2-.5.5-.6.8-1.2.2-3 0-4.7-1.7-2.2-2.2-2.1-4.6-1.9-5.9l19.4-18c1.6-1.5 1.7-3.9.2-5.5s-3.9-1.7-5.5-.2L39.2 91.8c-.8.3-3.9 1.1-6.4-1.4-2.1-2.1-1.8-4.4-1.4-5.5l29.2-27.2c4.8 5.9 15.3 13.9 24.4 9.6 13-6.2 9.4-10.1 9.4-10.1s-8.8-7.9-18-16C80 37.7 92.7 26 106.5 25.8c6.9-.1 12.9 2.5 18.4 8.1 5.3 5.4 7.7 11.1 7.1 17.3-1.2 13.1-14.9 24.7-19.5 28.2l-.6-.6c-3-3-7.3-3.6-9.6-1.4l-1.2 1.2c-2.3 2.3-1.6 6.6 1.4 9.6l7.1 7.1c3 3 7.3 3.6 9.6 1.4l1.2-1.2c2.3-2.3 1.6-6.6-1.4-9.6l-1-1c6-4.7 20.2-17.5 21.7-33 .8-8.5-2.3-16.4-9.3-23.5z"/></g></svg>