<svg viewBox="0 0 120 118.5" xmlns="http://www.w3.org/2000/svg"><path d="M110.6 44.9c-6-12.2-17.3-27.5-32.5-26.2-10.8.9-22.2 9.2-27.4 19.5-2.6-11.3.7-24.1 8-32.9-3.8-1-8.2-1.5-12.2-1.7-3.2 9.9-3.6 25.5 0 37.1-11.6-.9-24.7 4.7-31 13.6-8.9 12.4-1.5 29.9 5.9 41.3 11 17 32.5 25.6 51.9 16.7 4.3-2 8.5-5.4 11.1-9.7 4.9 0 10.1-1.9 14-4.6 17.6-12 21.1-34.9 12.2-53.1zM94.7 57.5c-1.9-5.9-3.4-11.7-8.1-16.1-3.9-3.7-13.2-9.3-20-8.9 14.5-3.2 42.6 10.7 28.1 25z" fill="#fff"/><path d="M43.6 36s-4.7-13.3-15.2-17.3-22.9 2.7-22.9 2.7 4.7 13.3 15.2 17.3C31.2 42.8 43.6 36 43.6 36z" fill="#fff"/></svg>