<svg viewBox="246 361.3 120 108" xmlns="http://www.w3.org/2000/svg"><path d="M329.3 425H290.5c2.6-3 7.2-3.7 13.6-3.2 13.4 1.2 21.4-1 24.2-5.9.7-1.4 1.4-3.6.7-6.9l-1.6.2c.5 2 .4 3.9-.5 5.7-2.4 4.3-10.2 6.4-22.5 5.3-7.9-.7-13.4.8-16.1 4.8h-34.5c-3.5 0-5.9 1.9-5.9 5.4v30.2c0 3.5 2.4 6.4 5.9 6.4h75.4c3.5 0 5.7-2.9 5.7-6.4v-30.2c.1-3.5-2.2-5.4-5.6-5.4zm-9.3 12c0 .5-.4 1-1 1h-5c-.5 0-1-.4-1-1v-5c0-.5.4-1 1-1h5c.5 0 1 .4 1 1v5zm-20 0c0 .5-.4 1-1 1h-5c-.5 0-1-.4-1-1v-5c0-.5.4-1 1-1h5c.5 0 1 .4 1 1v5zm0 11c0 .5-.4 1-1 1h-5c-.5 0-1-.4-1-1v-5c0-.5.4-1 1-1h5c.5 0 1 .4 1 1v5zm-10-11c0 .5-.4 1-1 1h-5c-.5 0-1-.4-1-1v-5c0-.5.4-1 1-1h5c.5 0 1 .4 1 1v5zm0 11c0 .5-.4 1-1 1h-5c-.5 0-1-.4-1-1v-5c0-.5.4-1 1-1h5c.5 0 1 .4 1 1v5zm-16-16.8c0-.5-.1-.2.4-.2h5.1c.5 0 1.5-.4 1.5.2v5.1c0 .5-.9.7-1.5.7h-5.1c-.5 0-.4-.2-.4-.7v-5.1zm0 11.9c0-.5-.1-1.1.4-1.1h5.1c.5 0 1.5.5 1.5 1.1v5.1c0 .5-.9.8-1.5.8h-5.1c-.5 0-.4-.3-.4-.8v-5.1zm-3-6.1c0 .5-.4 1-1 1h-5c-.5 0-1-.4-1-1v-5c0-.5.4-1 1-1h5c.5 0 1 .4 1 1v5zm0 11c0 .5-.4 1-1 1h-5c-.5 0-1-.4-1-1v-5c0-.5.4-1 1-1h5c.5 0 1 .4 1 1v5zm-11.1 12c0 1 0 2-.5 2h-5.2c-.5 0-.2-1.3-.2-1.8v-5.1c0-.5-.3-1.1.2-1.1h5.1c.5 0 .7.5.7 1.1l-.1 4.9zm1.1-11.7c0 .5-.3.7-.8.7h-5.4c-.5 0-.7-.2-.7-.7v-5.4c0-.5.2-.9.7-.9h5.4c.5 0 .8.4.8.9v5.4zm0-11.1c0 .5-.3.8-.8.8h-5.4c-.5 0-.7-.3-.7-.8v-5.4c0-.5.2-.7.7-.7h5.4c.5 0 .8.2.8.7v5.4zm48 22.9c0 .6.5 1.9 0 1.9h-44.3c-.5 0-.6-1.3-.6-1.9v-4.8c0-.6.1-1.3.6-1.3H309c.5 0 0 .6 0 1.3v4.8zm0-11.9c0 .5.5.8 0 .8h-5.1c-.6 0-.9-.3-.9-.8v-5.1c0-.5.3-1.1.9-1.1h5.1c.5 0 0 .5 0 1.1v5.1zm0-12c0 .5.5.8 0 .8h-5.1c-.5 0-.9-.2-.9-.8v-5.1c0-.5.3-.1.9-.1h5.1c.5 0 0-.4 0 .1v5.1zm9.1 24.8s-.5-1-.6-1H313c-.1 0-.1.8-.1.6v-2.1c0-.2-.1-.5.1-.5h4.4c.1 0 .6.4.6.5v2.5h.1zm4.9-.4c0 .2.5-.6.3-.6h-4.5c-.1 0-.9.8-.9.6v-2.1c0-.2.7-.5.9-.5h4.5c.1 0-.3.4-.3.5v2.1zm0-3.6h.3-5.4v-2.4c0-.2.7-.6.9-.6h4.5c.1 0-.3.5-.3.6v2.4zm6 3.6v-.6h-4.2c-.1 0-.8.8-.8.6v-2.1c0-.2.7-.5.8-.5h4.2v2.6zm0-12.4c0 .5.2.8-.5.8h-15.1c-.5 0-.4-.3-.4-.8v-5.1c0-.5-.2-1.1.4-1.1h15.1c.5 0 .5.5.5 1.1v5.1zm0-12c0 .5.2.8-.5.8h-5.1c-.5 0-1.5-.2-1.5-.8v-5.1c0-.5 1-.1 1.5-.1h5.1c.5 0 .5-.4.5.1v5.1z" fill="#fff"/><path d="M362.6 365h-64.5c-1 0-2.1.4-2.1 1.4v41.2c0 1 1.1 1.3 2.1 1.3h21.4l-1.7 10H310v4h40v-4h-7l-1.4-10h21.1c1.1 0 2.3-.3 2.3-1.3v-41.2c0-1-1.3-1.4-2.4-1.4zm-4.6 39h-55v-34h55v34z" fill="#fff"/></svg>