<svg viewBox="0 0 120 90" xmlns="http://www.w3.org/2000/svg"><path d="M115.7 69.5h-9.2V12.2c0-1.7-1.1-3.7-2.8-3.7H17.9c-1.7 0-3.4 2-3.4 3.7v57.3H5.8c-2.3 0-4.4 2-4.4 4.3v3.9c0 2.3 2.1 3.8 4.4 3.8h109.9c2.3 0 3.8-1.5 3.8-3.8v-3.9c-.1-2.3-1.5-4.3-3.8-4.3zm-36.3 6.4c0 .9-1.4 1.6-2.3 1.6H44.3c-.9 0-.9-.7-.9-1.6v-1.5c0-.1-.6 0-.6 0h35.8s.8-.2.8 0v1.5zm19-8.4h-76V16.6c0-.1.5-.1.6-.1h75.5c.1 0 0 0 0 .1v50.9zm4.2 10.2c-.9 0-1.6-.7-1.6-1.6s.7-1.6 1.6-1.6 1.6.7 1.6 1.6-.7 1.6-1.6 1.6zm7.4 0c-.9 0-1.6-.7-1.6-1.6s.7-1.6 1.6-1.6 1.6.7 1.6 1.6-.8 1.6-1.6 1.6z" fill="#fff"/></svg>