<svg xmlns="http://www.w3.org/2000/svg" viewBox="0 0 150 150"><path fill="#FFF" d="M134.8 30.3l-.9-.9c-6.4-6.4-15-10-24.2-10s-17.7 3.5-24.2 10L78.1 37l-7.5-7.5c-6.4-6.4-15-10-24.2-10s-17.7 3.5-24.2 10l-.9.9c-10.8 10.7-12.9 27.1-6.1 40h9c-7.8-10.4-7-25.3 2.4-34.8l.9-.9c5-5 11.7-7.8 18.8-7.8 7.1 0 13.8 2.8 18.8 7.8l7.4 7.4.1.1c1.3 1.1 3.3 2.5 5.3 2.5 2.2 0 3.8-1 5.4-2.5l1.9-1.9.4-.4 5.2-5.2c5-5 11.7-7.8 18.8-7.8 7.1 0 13.8 2.8 18.8 7.8l.9.9c10.4 10.4 10.4 27.2 0 37.6l-51.4 51.4L46.4 93H35.7l36.6 36.6.1.1c1.4 1.3 3.6 2.9 5.7 2.9 2.3 0 3.9-1.1 5.6-2.7.1-.1.1-.1.2-.1l51-51c13.3-13.5 13.3-35.2-.1-48.5z"/><path fill="#FFF" d="M66.1 98.6c-1.4 0-2.8-.8-3.4-2.1l-9.5-19.2-5 6.7c-.7 1-1.9 1.5-3.1 1.5H8.6c-2.1 0-3.8-1.7-3.8-3.8S6.5 78 8.6 78h34.7l7.6-10.2c.8-1.1 2.1-1.6 3.4-1.5 1.3.1 2.5.9 3.1 2.1l8 16.2 8.9-29.1c.5-1.6 1.9-2.6 3.5-2.7 1.7-.1 3.1 1 3.7 2.5l8.3 22.9h11.9c2.1 0 3.8 1.7 3.8 3.8 0 2.1-1.7 3.8-3.8 3.8H87c-1.6 0-3-1-3.6-2.5l-5.3-14.7L69.7 96c-.5 1.5-1.8 2.5-3.3 2.7-.1-.1-.2-.1-.3-.1z"/></svg>