<svg viewBox="0 0 120 114" xmlns="http://www.w3.org/2000/svg"><path d="M48.9 60.8a6.3 6.3 0 10-12.6 0 6.3 6.3 0 1012.6 0M82 60.8a6.3 6.3 0 10-12.6 0 6.3 6.3 0 1012.6 0" fill="#fff"/><path d="M109.4 39.6l-6.1-1.8C99.4 17.6 82 1.7 59.6 1.7c-22.5 0-40 16.1-43.8 36.4l-5.1 1.5c-6.2 1.8-7.1 9.3-7.1 18.2s.9 16.4 7.1 18.2l7.7 2.3c2.3.7 4.5-.8 4.5-3.4v-7.6c3.6 17.3 15.9 33.6 32.1 36.3.4-2 1.3-3.8 2.5-5.4-17-1.6-29.9-22.7-29.9-41 0-2.4.2-4.7.6-6.9h.1s13.2 0 19.5-17.2c0 0 7.8 16 35.8 17.2H91c.4 2.2.6 4.5.6 6.9 0 14.1-7.7 29.8-19 37.1 1.9.8 3.5 2.1 4.8 3.6 11.2-8.1 18.8-23.1 19.7-37.5v14.5c0 1.1.4 1.9.9 2.5-1.1 2.4-2.4 4.9-3.9 7.7-3.7 6.9-12 14.6-20.9 17.1-1.2-1.8-3.4-3.1-5.7-3.1-3.8 0-6.9 3.1-6.9 6.9s3.1 6.9 6.9 6.9c3.1 0 5.8-2.1 6.6-5 10.9-2.8 20.7-11.8 25.2-20.2 2.1-3.9 3.8-7.4 5.2-10.5l4.8-1.4c6.2-1.8 7.1-9.3 7.1-18.2.1-8.7-.8-16.2-7-18z" fill="#fff"/></svg>