<svg xmlns="http://www.w3.org/2000/svg" viewBox="0 0 150 150"><path fill-rule="evenodd" clip-rule="evenodd" fill="#FFF" d="M74.9 29c-9-4.6-17.3 9.9-16.2 24.4-4.1 12.3 1.4 20.6 11.8 20.3 2.8 2 4.9 3.7 7.8 3.7h.4c2.9 0 5-1.7 7.8-3.7 10.4.4 15.9-8 11.8-20.3.8-14.4-9.6-30.8-23.4-24.4zm33.5 54.2l-15.6-5.1-14.4 22.4-13.5-22.4-16.5 5.1v28.5l29.8 6.1 30.2-6.1V83.2zM72.9 35.3c.5 3.4 6.3 16.9 20.9 21.1-.2.8-.9 2.7-1.5 3.2l-1.2.5-.2 1.4c-.8 5.2-1.8 7.1-6.1 10.2-1.7 1.2-4.1 3.3-6.3 3.2h-.4c-2.2 0-4.6-2-6.3-3.2-4.3-3.1-5.3-5-6.1-10.2l-.2-1.4-1.2-.5c-.6-.5-1.3-2.5-1.5-3.2-.2-.6-.5-2.5-.2-3.2l1.9-.4c1.7-8.7 7.2-9 8.4-17.5zM148.6 86.5l-14.3-5.1-13.1 17.2-9.2-12.9v25.2l36.7-7.9V86.5h-.1zM2 88.5l18.8-7 8.6 18.2 2.3-9.1-2.3-4.5 2.3-4.5h4.6l2.3 4.5-2.3 4.5 3.2 9.1L44.6 86v25.1L2 102.7V88.5zM19 65c-1.7-1.3-2.3-3.9-2.6-5.9-.3-1.8-.4-3.8.9-5.2-.2-5.8 0-20.3 10.6-18.9 5.1-2.5 13.7-1.6 18.4 2.4 4.1 3.6 4.7 8.5 4.4 16.4 1.3 1.4 1.2 3.4.9 5.2-.3 2-.9 4.6-2.6 5.9-.1 1.5-.1 2.9-.5 4.3-.7 2.3-2.2 3.9-4.1 5.2-1.5 1.1-2.8 2.4-4.4 3.4-1.9 1.1-3.8 1.4-5.9 1.3-2.1.1-4.1-.2-5.9-1.3-1.5-.9-2.9-2.3-4.4-3.4-1.9-1.4-3.4-2.9-4.1-5.2-.6-1.2-.6-2.7-.7-4.2zm9.5-20.6c-5.1-1.2-8.2 1.4-7.2 10.4-2.7-.1-3.2.9-2.8 3.9.4 2.8 1.2 4.6 2.6 4.8.2 4.1-.3 6.3 3.8 9.2 3.5 2.5 4.2 4.5 9 4.3 4.8.2 5.5-1.8 9-4.3 4-2.8 3.5-5.1 3.8-9.2 1.4-.2 2.2-2 2.6-4.8.4-3-.1-4-2.8-3.9-.6-7.7-10.5-.6-18-10.4zm79 19.9c-.9-.4-1.8-1.9-2.4-3.7-1.9-5.7-1.5-15.9 1.9-21.1 1.5-2.3 4.3-3.8 7.9-3.8 4.8-3.2 11.6-2.4 15.9.7 4.6 3.4 5.6 10.7 5.4 17.8 7.7 4.8.9 16.5 3.4 24-3.2.6-6.9 0-11.2-3.1-2.5 1.8-4.5 3.4-7.1 3.4h-.2c-2.6 0-4.6-1.6-7.1-3.4-4.3-3-5.7-5.1-6.5-10.8zm8.6-24.6c-1.5 7.8-7.9 7.5-7.6 16.4l-1.7.4c-.3.7.1 2.4.2 2.9.2.7.8 2.5 1.4 3l1.1.5.2 1.2c.7 4.8 1.6 6.5 5.5 9.4 1.6 1.1 3.7 3 5.7 3h.4c2 0 4.2-1.8 5.8-3 3.9-2.8 4.8-4.6 5.5-9.3 2.3-15.6-1.4-4.7-9.5-15-2.4-3.3-3.3-9.5-7-9.5z"/></svg>