<svg viewBox="0 0 120 116.7" xmlns="http://www.w3.org/2000/svg"><path d="M64.5 7c0 2.4-1.9 4.3-4.3 4.3-2.3-.1-4.2-2-4.2-4.3 0-2.4 1.9-4.3 4.3-4.3 2.3 0 4.2 1.9 4.2 4.3zM102.3 31.6c.4 0 .8.1 1.2.1 8.9 0 11.7-7 11.8-7.3.6-1.7-.1-3.7-1.8-4.4s-3.6.2-4.3 1.8c-.1.1-.1.2-.1.4-.4.9-2.7 4.8-11.3 1.7h-.1c-10-4.3-23.7-6.5-37.1-6.5-14 0-28.4 2.4-38.5 7.1-8 2.6-10.2-1.1-10.6-2 0-.1-.1-.2-.1-.4-.7-1.7-2.6-2.5-4.3-1.8S4.6 23 5.3 24.7c0 .4 2.8 7.3 11.7 7.3h1C13.4 38.7 1.4 57.1 1.4 63.8c0 8.5 8.7 15.2 19.9 15.2s19.9-6.7 19.9-15.2c0-7.1-13.1-26.8-17.2-32.7l-.3-.3c.2-.1.6-.2.8-.3s1.1-.4 1.1-.4c7.4-3.3 18.4-5.7 31.2-6V84h6.7V24c13 .3 24.1 2.7 31.7 6 .1 0 .7.3.8.3l1 .3c-.2.2-.4.3-.5.6-4 5.9-17.2 25.7-17.2 32.7 0 8.5 8.7 15.2 19.9 15.2s19.9-6.7 19.9-15.2c0-7-12.5-26-16.8-32.3zM34.6 63.8c0 4.7-6.1 8.6-13.3 8.6S8.1 68.5 8.1 63.8c0-.2 0-.4.1-.6h26.4v.6zm-2.8-7.2H10.9c2.5-4.9 6.4-11.5 10.5-17.6 4 6.1 7.9 12.6 10.4 17.6zM99.2 39c4.4 6.7 8.6 13.7 11 18.8h-22c2.5-5.1 6.7-12.2 11-18.8zm0 33.4c-6.9 0-12.8-3.6-13.2-8h26.4c-.4 4.4-6.3 8-13.2 8zM60.3 91C43.9 91 30 100.9 25 114.6h70.5C90.5 100.9 76.6 91 60.3 91zm-23.7 17c5.6-6.3 14.1-10.3 23.6-10.3s18 4 23.6 10.3H36.6z" fill="#fff"/></svg>