<?xml version="1.0" encoding="utf-8"?>
<!-- Generator: Adobe Illustrator 19.2.0, SVG Export Plug-In . SVG Version: 6.00 Build 0)  -->
<!DOCTYPE svg PUBLIC "-//W3C//DTD SVG 1.1//EN" "http://www.w3.org/Graphics/SVG/1.1/DTD/svg11.dtd">
<svg version="1.1" id="Layer_1" xmlns="http://www.w3.org/2000/svg" xmlns:xlink="http://www.w3.org/1999/xlink" x="0px" y="0px"
	 viewBox="0 0 267 35" style="enable-background:new 0 0 267 35;" xml:space="preserve">
<style type="text/css">
	.st0{display:none;}
	.st1{display:inline;fill:#00B5EF;}
	.st2{fill:#00B5EF;}
</style>
<g class="st0">
	<path class="st1" d="M12.3,33L1.6,9.6h3.5l8.8,20.3l8.8-20.3h3.4L15.5,33H12.3z"/>
	<path class="st1" d="M29.5,4.7V1.1h3v3.6H29.5z M29.5,33V9.6h3V33H29.5z"/>
	<path class="st1" d="M37.2,25.7h3.1c0.2,1.7,1,3.1,2.4,3.9c1.4,0.9,3.3,1.3,5.8,1.3c2.6,0,4.6-0.4,6-1.1s2.1-1.8,2.1-3.2
		c0-1-0.3-1.8-1-2.3c-0.7-0.6-1.8-0.9-3.3-1.2l-6.8-1c-2.7-0.4-4.6-1.1-5.8-2.1s-1.8-2.4-1.8-4.3c0-2.1,0.9-3.8,2.8-5
		c1.9-1.2,4.4-1.9,7.6-1.9c3.3,0,5.8,0.7,7.7,2s2.8,3.2,2.9,5.6h-3.1c-0.2-1.6-1-2.8-2.3-3.6s-3.2-1.2-5.6-1.2c-2.1,0-3.8,0.3-5,1
		s-1.8,1.6-1.8,2.9c0,1,0.4,1.8,1.1,2.3c0.8,0.5,2.2,1,4.2,1.3l6,0.9c2.6,0.4,4.5,1.1,5.6,2.1s1.7,2.4,1.7,4.2c0,2.5-1,4.4-3,5.7
		c-2,1.3-4.8,1.9-8.6,1.9c-3.3,0-5.9-0.7-7.8-2.1C38.5,30.3,37.4,28.3,37.2,25.7z"/>
	<path class="st1" d="M64.5,4.7V1.1h3v3.6H64.5z M64.5,33V9.6h3V33H64.5z"/>
	<path class="st1" d="M72.8,21.3c0-3.7,1.2-6.8,3.5-9.1s5.3-3.5,9.1-3.5c3.7,0,6.7,1.2,9.1,3.5c2.3,2.3,3.5,5.3,3.5,9.1
		c0,3.7-1.2,6.8-3.5,9.1s-5.3,3.5-9.1,3.5c-3.7,0-6.8-1.2-9.1-3.5S72.8,25.1,72.8,21.3z M75.9,21.3c0,2.9,0.8,5.2,2.5,7
		c1.7,1.7,4,2.6,6.8,2.6s5.1-0.9,6.8-2.6c1.7-1.7,2.5-4.1,2.5-7s-0.8-5.2-2.5-6.9c-1.7-1.7-4-2.6-6.8-2.6c-2.9,0-5.1,0.9-6.8,2.6
		C76.8,16.1,75.9,18.4,75.9,21.3z"/>
	<path class="st1" d="M102.8,33V9.6h3v4.3c1.1-1.6,2.5-2.8,4.2-3.6c1.7-0.8,3.5-1.2,5.6-1.2c3.1,0,5.4,0.7,6.8,2.1
		c1.5,1.4,2.2,3.6,2.2,6.6V33h-3V19.9c0-3-0.5-5.1-1.5-6.2c-1-1.2-2.7-1.7-5-1.7c-2.7,0-4.9,0.7-6.6,2.2s-2.6,3.3-2.6,5.6V33H102.8z
		"/>
	<path class="st1" d="M129,33c0-0.1,0-0.2,0-0.4s0-0.3,0-0.4c0-2.2,0.7-4.3,2-6.2c1.4-2,3.5-4,6.6-6.1c0.8-0.6,1.9-1.3,3.3-2.2
		c3.4-2.2,5.1-4,5.1-5.6c0-1.2-0.3-2.2-1-2.9s-1.6-1-2.8-1c-1.5,0-2.5,0.5-3.3,1.4c-0.7,0.9-1.1,2.3-1.1,4.2v0.5h-8.2
		c0-0.1,0-0.3,0-0.5s0-0.3,0-0.4c0-3.8,1.2-6.8,3.5-9s5.5-3.3,9.6-3.3c3.7,0,6.7,0.9,8.9,2.8c2.2,1.8,3.3,4.3,3.3,7.3
		c0,2-0.4,3.6-1.3,5c-0.9,1.3-2.6,2.8-5.3,4.4c-0.3,0.2-0.8,0.5-1.5,0.9c-2.5,1.5-4.5,2.8-5.9,4h13.9V33H129z"/>
	<path class="st1" d="M160.3,33V1.1h3V33H160.3z"/>
	<path class="st1" d="M192.7,25.6c-0.6,2.5-2,4.6-4,6.1c-2.1,1.5-4.6,2.2-7.5,2.2c-3.8,0-6.8-1.2-9.1-3.5s-3.4-5.3-3.4-9.1
		c0-3.7,1.2-6.8,3.5-9.1s5.3-3.5,9.1-3.5s6.8,1.1,9,3.4c2.3,2.3,3.4,5.3,3.4,9.1V22h-21.6c0.2,2.8,1.1,5,2.7,6.6
		c1.6,1.5,3.8,2.3,6.5,2.3c2,0,3.7-0.5,5.1-1.4c1.4-0.9,2.4-2.2,3-3.9H192.7z M172,19.4h18.1c-0.2-2.3-1.1-4.2-2.7-5.6
		c-1.6-1.4-3.7-2.1-6.2-2.1c-2.6,0-4.7,0.7-6.3,2.1C173.1,15.2,172.2,17.1,172,19.4z"/>
	<path class="st1" d="M222.4,30.1v2.7c-0.5,0.1-0.9,0.3-1.3,0.3c-0.4,0.1-0.8,0.1-1.2,0.1c-1,0-1.8-0.3-2.3-0.8
		c-0.5-0.6-0.8-1.5-0.9-2.9c-1.3,1.5-2.7,2.5-4.3,3.2c-1.6,0.7-3.5,1-5.7,1c-2.8,0-5-0.6-6.6-1.8c-1.5-1.2-2.3-3-2.3-5.2
		c0-1,0.2-2,0.6-2.8c0.4-0.8,1-1.6,1.8-2.2c0.6-0.5,1.5-0.9,2.6-1.2c1.1-0.3,3-0.7,5.7-1c0.6-0.1,1.4-0.2,2.4-0.3
		c3.8-0.5,5.7-1.6,5.7-3.3c0-1.3-0.6-2.3-1.7-2.9c-1.1-0.7-2.7-1-4.8-1c-2.7,0-4.7,0.5-6.1,1.4c-1.4,0.9-2.1,2.3-2.3,4.1h-3
		c0.2-2.7,1.2-4.8,3-6.2s4.5-2.1,8-2.1c2.2,0,4,0.2,5.4,0.7c1.4,0.4,2.5,1.2,3.2,2.2c0.5,0.6,0.8,1.3,1,2.1s0.3,2,0.3,3.6v1.3v9.1
		c0,1,0.1,1.7,0.3,2s0.5,0.4,1,0.4c0.2,0,0.4,0,0.7-0.1C222,30.2,222.2,30.2,222.4,30.1z M216.7,20.4c-0.6,0.3-1.4,0.6-2.5,0.9
		s-3,0.6-5.5,1c-3.4,0.5-5.5,1.1-6.4,1.7s-1.3,1.5-1.3,2.8s0.5,2.3,1.6,3c1.1,0.8,2.6,1.1,4.4,1.1c2.9,0,5.2-0.7,7-2
		c1.8-1.4,2.7-3.1,2.7-5.3v-0.4V20.4z"/>
	<path class="st1" d="M230.3,33h-3.1V9.6h3.1v3.9c0.7-1.5,1.6-2.6,2.9-3.5c1.2-0.8,2.6-1.3,4.2-1.3c0.5,0,1,0.1,1.5,0.2
		c0.5,0.1,1,0.3,1.6,0.5v3c-0.5-0.2-1-0.3-1.4-0.3c-0.4-0.1-0.9-0.1-1.3-0.1c-1.8,0-3.4,0.5-4.6,1.5c-1.2,1-2.2,2.5-2.8,4.5
		L230.3,33L230.3,33z"/>
	<path class="st1" d="M243.6,33V9.6h3v4.3c1.1-1.6,2.5-2.8,4.2-3.6c1.7-0.8,3.5-1.2,5.6-1.2c3.1,0,5.4,0.7,6.8,2.1
		c1.5,1.4,2.2,3.6,2.2,6.6V33h-3V19.9c0-3-0.5-5.1-1.5-6.2c-1-1.2-2.7-1.7-5-1.7c-2.7,0-4.9,0.7-6.6,2.2c-1.7,1.5-2.6,3.3-2.6,5.6
		V33H243.6z"/>
</g>
<g>
	<path class="st2" d="M13.7,33.4L2.9,9.5h3.6l8.9,20.7l9-20.7h3.5L17,33.4H13.7z"/>
	<path class="st2" d="M30.7,4.6V0.9h3.1v3.7H30.7z M30.7,33.4V9.5h3.1v23.8H30.7z"/>
	<path class="st2" d="M38.2,25.9h3.2c0.2,1.8,1,3.1,2.4,4c1.4,0.9,3.3,1.4,5.9,1.4c2.7,0,4.7-0.4,6.1-1.1c1.4-0.8,2.1-1.8,2.1-3.3
		c0-1-0.3-1.8-1-2.4c-0.7-0.6-1.8-1-3.4-1.2l-6.9-1c-2.7-0.4-4.7-1.1-5.9-2.1c-1.2-1-1.8-2.5-1.8-4.4c0-2.2,0.9-3.9,2.8-5.1
		s4.5-1.9,7.8-1.9c3.3,0,5.9,0.7,7.8,2.1c1.9,1.4,2.9,3.3,2.9,5.7h-3.1c-0.2-1.6-1-2.8-2.4-3.6s-3.2-1.2-5.7-1.2
		c-2.2,0-3.9,0.4-5.1,1.1s-1.8,1.7-1.8,2.9c0,1,0.4,1.8,1.2,2.4c0.8,0.5,2.2,1,4.3,1.3l6.1,0.9c2.6,0.4,4.5,1.1,5.7,2.1
		c1.2,1,1.7,2.4,1.7,4.3c0,2.5-1,4.4-3,5.8s-4.9,2-8.8,2c-3.4,0-6-0.7-7.9-2.2C39.5,30.6,38.4,28.6,38.2,25.9z"/>
	<path class="st2" d="M65.5,4.6V0.9h3.1v3.7H65.5z M65.5,33.4V9.5h3.1v23.8H65.5z"/>
	<path class="st2" d="M73.5,21.5c0-3.8,1.2-6.9,3.5-9.2c2.3-2.4,5.4-3.5,9.2-3.5c3.8,0,6.9,1.2,9.2,3.5c2.4,2.4,3.5,5.4,3.5,9.2
		c0,3.8-1.2,6.9-3.5,9.3s-5.4,3.5-9.2,3.5c-3.8,0-6.9-1.2-9.2-3.5S73.5,25.3,73.5,21.5z M76.7,21.5c0,3,0.9,5.3,2.6,7.1
		s4.1,2.6,7,2.6c2.9,0,5.2-0.9,6.9-2.6c1.7-1.8,2.6-4.1,2.6-7.1c0-3-0.9-5.3-2.6-7.1s-4-2.6-6.9-2.6c-2.9,0-5.2,0.9-7,2.6
		S76.7,18.5,76.7,21.5z"/>
	<path class="st2" d="M103.7,33.4V9.5h3v4.4c1.2-1.6,2.6-2.8,4.3-3.7c1.7-0.8,3.6-1.2,5.7-1.2c3.1,0,5.5,0.7,7,2.2
		c1.5,1.4,2.2,3.7,2.2,6.8v15.4h-3.1V20c0-3-0.5-5.1-1.5-6.3s-2.7-1.8-5.1-1.8c-2.7,0-5,0.7-6.7,2.2s-2.6,3.4-2.6,5.7v13.6H103.7z"
		/>
	<path class="st2" d="M129.6,33.4c0-2.8,0.6-5.2,1.8-7.2c1.2-2,3.3-3.9,6.2-5.9c0.5-0.3,1.1-0.7,2-1.3c4-2.5,5.9-5,5.9-7.3
		c0-1.4-0.4-2.5-1.3-3.3c-0.8-0.8-2-1.2-3.4-1.2c-1.6,0-2.8,0.5-3.7,1.5c-0.9,1-1.3,2.4-1.3,4.2v0.3h-5.8c0-3.6,1-6.4,2.9-8.3
		c1.9-1.9,4.7-2.9,8.3-2.9c3.2,0,5.8,0.9,7.8,2.6c1.9,1.8,2.9,4.1,2.9,7c0,2.1-0.5,3.9-1.5,5.4c-1,1.5-3,3.3-5.9,5.3
		c-0.6,0.4-1.5,1-2.5,1.7c-2.8,1.8-4.3,3.1-4.7,4h14.3v5.4H129.6z"/>
	<path class="st2" d="M157.2,33.4V0.9h3.1v32.5H157.2z"/>
	<path class="st2" d="M189.7,25.8c-0.6,2.6-2,4.7-4.1,6.2c-2.1,1.5-4.7,2.3-7.7,2.3c-3.8,0-6.9-1.2-9.2-3.5
		c-2.3-2.3-3.5-5.4-3.5-9.3c0-3.8,1.2-6.9,3.5-9.2c2.3-2.4,5.4-3.5,9.2-3.5c3.8,0,6.9,1.2,9.2,3.5c2.3,2.3,3.5,5.4,3.5,9.3v0.7h-22
		c0.2,2.9,1.1,5.1,2.7,6.7c1.6,1.6,3.8,2.4,6.7,2.4c2,0,3.8-0.5,5.2-1.4c1.4-0.9,2.5-2.3,3-4H189.7z M168.6,19.5H187
		c-0.2-2.4-1.1-4.3-2.8-5.7c-1.7-1.4-3.8-2.2-6.3-2.2c-2.6,0-4.8,0.7-6.4,2.2C169.8,15.2,168.8,17.2,168.6,19.5z"/>
	<path class="st2" d="M219.5,30.4l0,2.7c-0.5,0.1-0.9,0.3-1.4,0.3c-0.4,0.1-0.8,0.1-1.2,0.1c-1.1,0-1.8-0.3-2.3-0.8
		c-0.5-0.6-0.8-1.5-0.9-2.9c-1.3,1.5-2.8,2.6-4.4,3.2c-1.6,0.7-3.6,1-5.8,1c-2.9,0-5.1-0.6-6.7-1.9s-2.4-3-2.4-5.3
		c0-1.1,0.2-2,0.6-2.9c0.4-0.8,1-1.6,1.9-2.2c0.7-0.5,1.6-0.9,2.7-1.2c1.1-0.3,3.1-0.7,5.8-1.1c0.6-0.1,1.4-0.2,2.5-0.3
		c3.9-0.5,5.8-1.6,5.8-3.4c0-1.3-0.6-2.3-1.7-3c-1.1-0.7-2.8-1-4.9-1c-2.7,0-4.8,0.5-6.2,1.4c-1.4,0.9-2.2,2.3-2.3,4.2h-3.1
		c0.2-2.8,1.2-4.9,3.1-6.3c1.9-1.4,4.6-2.1,8.1-2.1c2.3,0,4.1,0.2,5.5,0.7c1.4,0.5,2.5,1.2,3.3,2.2c0.5,0.6,0.8,1.3,1,2.1
		c0.2,0.8,0.3,2,0.3,3.7V19v9.3c0,1.1,0.1,1.7,0.3,2c0.2,0.3,0.5,0.4,1,0.4c0.2,0,0.4,0,0.7-0.1C219.1,30.5,219.3,30.5,219.5,30.4z
		 M213.7,20.5c-0.6,0.3-1.4,0.6-2.6,0.9c-1.2,0.3-3,0.6-5.6,1c-3.4,0.5-5.6,1.1-6.5,1.7c-0.9,0.6-1.4,1.6-1.4,2.8
		c0,1.3,0.6,2.3,1.7,3.1c1.1,0.8,2.6,1.2,4.5,1.2c2.9,0,5.3-0.7,7.2-2.1c1.8-1.4,2.8-3.2,2.8-5.4v-0.4V20.5z"/>
	<path class="st2" d="M227.1,33.4h-3.1V9.5h3.1v4c0.7-1.5,1.7-2.7,2.9-3.5c1.3-0.8,2.7-1.3,4.2-1.3c0.5,0,1,0.1,1.5,0.2
		c0.5,0.1,1.1,0.3,1.6,0.5v3c-0.5-0.2-1-0.3-1.5-0.4c-0.5-0.1-0.9-0.1-1.3-0.1c-1.9,0-3.4,0.5-4.7,1.5c-1.2,1-2.2,2.5-2.9,4.5V33.4z
		"/>
	<path class="st2" d="M240.2,33.4V9.5h3v4.4c1.2-1.6,2.6-2.8,4.3-3.7c1.7-0.8,3.6-1.2,5.7-1.2c3.1,0,5.5,0.7,7,2.2
		c1.5,1.4,2.2,3.7,2.2,6.8v15.4h-3.1V20c0-3-0.5-5.1-1.5-6.3s-2.7-1.8-5.1-1.8c-2.7,0-5,0.7-6.7,2.2s-2.6,3.4-2.6,5.7v13.6H240.2z"
		/>
</g>
</svg>
