<?xml version="1.0" encoding="utf-8"?>
<!-- Generator: Adobe Illustrator 18.1.1, SVG Export Plug-In . SVG Version: 6.00 Build 0)  -->
<!DOCTYPE svg PUBLIC "-//W3C//DTD SVG 1.1//EN" "http://www.w3.org/Graphics/SVG/1.1/DTD/svg11.dtd">
<svg version="1.1" id="Calque_1" xmlns="http://www.w3.org/2000/svg" xmlns:xlink="http://www.w3.org/1999/xlink" x="0px" y="0px"
	 viewBox="760 14 1920 448" enable-background="new 760 14 1920 448" xml:space="preserve">
<g>
	<g>
		<path fill="#FFFFFF" d="M2444.8,302.7c-40.1,0-72.6,32.5-72.6,72.6s32.5,72.6,72.6,72.6c40.1,0,72.6-32.5,72.6-72.6
			S2484.7,302.7,2444.8,302.7z M2444.8,443.2c-37.4,0-67.7-30.4-67.7-67.7s30.4-67.7,67.7-67.7s67.7,30.4,67.7,67.7
			S2482.1,443.2,2444.8,443.2z"/>
		<path fill="#FFFFFF" d="M2442.2,397.1c-6.6,0-12.1,5.4-12.1,12.1s5.4,12.1,12.1,12.1c6.6,0,12.1-5.4,12.1-12.1
			S2448.9,397.1,2442.2,397.1z M2442.2,416.5c-4.1,0-7.2-3.3-7.2-7.2c0-3.9,3.3-7.2,7.2-7.2c4.1,0,7.2,3.3,7.2,7.2
			S2446.3,416.5,2442.2,416.5z"/>
		<path fill="#FFFFFF" d="M2460.3,336c-2.3-2.1-5.3-3.7-8.6-4.9c-6.4-2.3-14-2.1-20.2,0c-3.1,1.2-6,2.9-8.4,5.1
			c-2.3,2.1-4.3,4.9-5.6,8c-1.6,3.5-2.1,8.6-2.1,11.9v2.3h19.5V356c0-2.5,1-5.4,1.8-6.6c1-1.2,2.7-1.9,5.1-1.9
			c2.1,0,3.9,0.6,5.1,1.9c1.2,1.4,1.8,2.9,1.8,5.1c0,1-0.2,1.8-0.8,2.7c-0.6,1.2-1.4,2.3-2.1,3.3l-8.4,10.9
			c-1.6,2.1-2.9,4.3-3.7,6.2c-0.8,1.9-1.2,4.5-1.2,7.2v5.1h19.5v-4.1c0-0.8,0.4-1.6,0.6-2.3c0.4-0.8,0.8-1.6,1.2-2.1l8.6-11.1
			c1.8-2.3,3.1-4.7,4.3-7c1.2-2.5,1.8-5.4,1.8-8.8c0-3.9-0.8-7.6-2.1-10.7C2464.8,340.8,2462.9,338.1,2460.3,336z M2462.3,361.3
			c-1,2.1-2.3,4.1-3.7,6l-8.4,11.1c-0.8,1-1.4,2.1-1.9,3.5c-0.4,1-0.6,2.1-0.8,3.1h-10.1v-0.4c0-2.1,0.4-3.9,1-5.4
			c0.6-1.6,1.6-3.1,2.9-5.1l8.6-10.9c1-1.4,1.9-2.7,2.5-4.1c0.8-1.6,1.2-3.3,1.2-4.9c0-3.3-1-6-3.1-8.4s-5.1-3.5-8.6-3.5
			c-3.7,0-6.6,1.2-8.8,3.7c-1.6,1.8-2.3,4.7-2.7,7.2h-10.1c0.2-2.9,0.8-5.8,1.6-7.6c1.2-2.5,2.7-4.7,4.5-6.4
			c1.9-1.8,4.3-3.1,6.8-4.1c5.1-1.9,11.5-1.9,16.9,0c2.5,1,4.9,2.3,6.8,3.9c1.9,1.8,3.5,3.9,4.7,6.2c1.2,2.5,1.8,5.4,1.8,8.8
			C2463.6,357,2463.1,359.3,2462.3,361.3z"/>
	</g>
	<g>
		<path fill="#FFFFFF" d="M2612.2,169.9c-30,0-54.4,24.4-54.4,54.4s24.4,54.4,54.4,54.4s54.4-24.4,54.4-54.4
			S2642.1,169.9,2612.2,169.9z M2612.2,275.2c-28,0-50.8-22.8-50.8-50.8s22.8-50.8,50.8-50.8s50.8,22.8,50.8,50.8
			S2640.2,275.2,2612.2,275.2z"/>
		<path fill="#FFFFFF" d="M2610.3,240.6c-5,0-9,4.1-9,9s4.1,9,9,9c5,0,9-4.1,9-9S2615.2,240.6,2610.3,240.6z M2610.3,255.2
			c-3.1,0-5.4-2.5-5.4-5.4s2.5-5.4,5.4-5.4c3.1,0,5.4,2.5,5.4,5.4S2613.3,255.2,2610.3,255.2z"/>
		<path fill="#FFFFFF" d="M2623.8,194.8c-1.8-1.6-3.9-2.8-6.4-3.6c-4.8-1.8-10.5-1.6-15.2,0c-2.3,0.9-4.5,2.2-6.3,3.8
			c-1.8,1.6-3.2,3.6-4.2,6c-1.2,2.6-1.6,6.4-1.6,8.9v1.8h14.6v-1.8c0-1.9,0.7-4.1,1.3-5c0.7-0.9,2-1.5,3.8-1.5
			c1.6,0,2.9,0.4,3.8,1.5c0.9,1,1.3,2.2,1.3,3.8c0,0.7-0.1,1.3-0.6,2c-0.4,0.9-1,1.8-1.6,2.5l-6.3,8.2c-1.2,1.6-2.2,3.2-2.8,4.7
			c-0.6,1.5-0.9,3.4-0.9,5.4v3.8h14.6v-3.1c0-0.6,0.3-1.2,0.4-1.8c0.3-0.6,0.6-1.2,0.9-1.6l6.4-8.3c1.3-1.8,2.3-3.5,3.2-5.3
			c0.9-1.9,1.3-4.1,1.3-6.6c0-2.9-0.6-5.7-1.6-8C2627.2,198.4,2625.7,196.4,2623.8,194.8z M2625.3,213.8c-0.7,1.6-1.8,3.1-2.8,4.5
			l-6.3,8.3c-0.6,0.7-1,1.6-1.5,2.6c-0.3,0.7-0.4,1.6-0.6,2.3h-7.6v-0.3c0-1.6,0.3-2.9,0.7-4.1c0.4-1.2,1.2-2.3,2.2-3.8l6.4-8.2
			c0.7-1,1.5-2,1.9-3.1c0.6-1.2,0.9-2.5,0.9-3.6c0-2.5-0.7-4.5-2.3-6.3c-1.6-1.8-3.8-2.6-6.4-2.6c-2.8,0-5,0.9-6.6,2.8
			c-1.2,1.3-1.8,3.5-2,5.4h-7.6c0.1-2.2,0.6-4.4,1.2-5.7c0.9-1.9,2-3.5,3.4-4.8c1.5-1.3,3.2-2.3,5.1-3.1c3.8-1.5,8.6-1.5,12.7,0
			c1.9,0.7,3.6,1.8,5.1,2.9c1.5,1.3,2.6,2.9,3.5,4.7c0.9,1.9,1.3,4.1,1.3,6.6C2626.3,210.5,2625.9,212.3,2625.3,213.8z"/>
	</g>
	<g>
		<path fill="#FFFFFF" d="M2321.2,25.9c-30,0-54.4,24.4-54.4,54.4s24.4,54.4,54.4,54.4s54.4-24.4,54.4-54.4S2351.1,25.9,2321.2,25.9
			z M2321.2,131.2c-28,0-50.8-22.8-50.8-50.8s22.8-50.8,50.8-50.8s50.8,22.8,50.8,50.8S2349.2,131.2,2321.2,131.2z"/>
		<path fill="#FFFFFF" d="M2319.3,96.6c-5,0-9,4.1-9,9s4.1,9,9,9c5,0,9-4.1,9-9S2324.2,96.6,2319.3,96.6z M2319.3,111.2
			c-3.1,0-5.4-2.5-5.4-5.4s2.5-5.4,5.4-5.4c3.1,0,5.4,2.5,5.4,5.4S2322.3,111.2,2319.3,111.2z"/>
		<path fill="#FFFFFF" d="M2332.8,50.8c-1.8-1.6-3.9-2.8-6.4-3.6c-4.8-1.8-10.5-1.6-15.2,0c-2.3,0.9-4.5,2.2-6.3,3.8
			c-1.8,1.6-3.2,3.6-4.2,6c-1.2,2.6-1.6,6.4-1.6,8.9v1.8h14.6v-1.8c0-1.9,0.7-4.1,1.3-5c0.7-0.9,2-1.5,3.8-1.5
			c1.6,0,2.9,0.4,3.8,1.5c0.9,1,1.3,2.2,1.3,3.8c0,0.7-0.1,1.3-0.6,2c-0.4,0.9-1,1.8-1.6,2.5l-6.3,8.2c-1.2,1.6-2.2,3.2-2.8,4.7
			c-0.6,1.5-0.9,3.4-0.9,5.4v3.8h14.6v-3.1c0-0.6,0.3-1.2,0.4-1.8c0.3-0.6,0.6-1.2,0.9-1.6l6.4-8.3c1.3-1.8,2.3-3.5,3.2-5.3
			c0.9-1.9,1.3-4.1,1.3-6.6c0-2.9-0.6-5.7-1.6-8C2336.2,54.4,2334.7,52.4,2332.8,50.8z M2334.3,69.8c-0.7,1.6-1.8,3.1-2.8,4.5
			l-6.3,8.3c-0.6,0.7-1,1.6-1.5,2.6c-0.3,0.7-0.4,1.6-0.6,2.3h-7.6v-0.3c0-1.6,0.3-2.9,0.7-4.1c0.4-1.2,1.2-2.3,2.2-3.8l6.4-8.2
			c0.7-1,1.5-2,1.9-3.1c0.6-1.2,0.9-2.5,0.9-3.6c0-2.5-0.7-4.5-2.3-6.3c-1.6-1.8-3.8-2.6-6.4-2.6c-2.8,0-5,0.9-6.6,2.8
			c-1.2,1.3-1.8,3.5-2,5.4h-7.6c0.1-2.2,0.6-4.4,1.2-5.7c0.9-1.9,2-3.5,3.4-4.8c1.5-1.3,3.2-2.3,5.1-3.1c3.8-1.5,8.6-1.5,12.7,0
			c1.9,0.7,3.6,1.8,5.1,2.9c1.5,1.3,2.6,2.9,3.5,4.7c0.9,1.9,1.3,4.1,1.3,6.6C2335.3,66.5,2334.9,68.3,2334.3,69.8z"/>
	</g>
	<g>
		<path fill="#FFFFFF" d="M855.8,247.7c-40.1,0-72.6,32.5-72.6,72.6s32.5,72.6,72.6,72.6s72.6-32.5,72.6-72.6
			S895.7,247.7,855.8,247.7z M855.8,388.2c-37.4,0-67.7-30.4-67.7-67.7s30.4-67.7,67.7-67.7s67.7,30.4,67.7,67.7
			S893.1,388.2,855.8,388.2z"/>
		<path fill="#FFFFFF" d="M853.2,342.1c-6.6,0-12.1,5.4-12.1,12.1s5.4,12.1,12.1,12.1c6.6,0,12.1-5.4,12.1-12.1
			S859.9,342.1,853.2,342.1z M853.2,361.5c-4.1,0-7.2-3.3-7.2-7.2c0-3.9,3.3-7.2,7.2-7.2c4.1,0,7.2,3.3,7.2,7.2
			S857.3,361.5,853.2,361.5z"/>
		<path fill="#FFFFFF" d="M871.3,281c-2.3-2.1-5.3-3.7-8.6-4.9c-6.4-2.3-14-2.1-20.2,0c-3.1,1.2-6,2.9-8.4,5.1
			c-2.3,2.1-4.3,4.9-5.6,8c-1.6,3.5-2.1,8.6-2.1,11.9v2.3h19.5V301c0-2.5,1-5.4,1.8-6.6c1-1.2,2.7-1.9,5.1-1.9
			c2.1,0,3.9,0.6,5.1,1.9c1.2,1.4,1.8,2.9,1.8,5.1c0,1-0.2,1.8-0.8,2.7c-0.6,1.2-1.4,2.3-2.1,3.3l-8.4,10.9
			c-1.6,2.1-2.9,4.3-3.7,6.2c-0.8,1.9-1.2,4.5-1.2,7.2v5.1H863v-4.1c0-0.8,0.4-1.6,0.6-2.3c0.4-0.8,0.8-1.6,1.2-2.1l8.6-11.1
			c1.8-2.3,3.1-4.7,4.3-7c1.2-2.5,1.8-5.4,1.8-8.8c0-3.9-0.8-7.6-2.1-10.7C875.8,285.8,873.9,283.1,871.3,281z M873.3,306.3
			c-1,2.1-2.3,4.1-3.7,6l-8.4,11.1c-0.8,1-1.4,2.1-1.9,3.5c-0.4,1-0.6,2.1-0.8,3.1h-10.1v-0.4c0-2.1,0.4-3.9,1-5.4
			c0.6-1.6,1.6-3.1,2.9-5.1l8.6-10.9c1-1.4,1.9-2.7,2.5-4.1c0.8-1.6,1.2-3.3,1.2-4.9c0-3.3-1-6-3.1-8.4s-5.1-3.5-8.6-3.5
			c-3.7,0-6.6,1.2-8.8,3.7c-1.6,1.8-2.3,4.7-2.7,7.2h-10.1c0.2-2.9,0.8-5.8,1.6-7.6c1.2-2.5,2.7-4.7,4.5-6.4
			c1.9-1.8,4.3-3.1,6.8-4.1c5.1-1.9,11.5-1.9,16.9,0c2.5,1,4.9,2.3,6.8,3.9c1.9,1.8,3.5,3.9,4.7,6.2c1.2,2.5,1.8,5.4,1.8,8.8
			C874.6,302,874.1,304.3,873.3,306.3z"/>
	</g>
	<g>
		<path fill="#FFFFFF" d="M932.2,36.9c-30,0-54.4,24.4-54.4,54.4s24.4,54.4,54.4,54.4s54.4-24.4,54.4-54.4S962.1,36.9,932.2,36.9z
			 M932.2,142.2c-28,0-50.8-22.8-50.8-50.8s22.8-50.8,50.8-50.8S983,63.4,983,91.4S960.2,142.2,932.2,142.2z"/>
		<path fill="#FFFFFF" d="M930.3,107.6c-5,0-9,4.1-9,9s4.1,9,9,9c5,0,9-4.1,9-9S935.2,107.6,930.3,107.6z M930.3,122.2
			c-3.1,0-5.4-2.5-5.4-5.4s2.5-5.4,5.4-5.4c3.1,0,5.4,2.5,5.4,5.4S933.3,122.2,930.3,122.2z"/>
		<path fill="#FFFFFF" d="M943.8,61.8c-1.8-1.6-3.9-2.8-6.4-3.6c-4.8-1.8-10.5-1.6-15.2,0c-2.3,0.9-4.5,2.2-6.3,3.8s-3.2,3.6-4.2,6
			c-1.2,2.6-1.6,6.4-1.6,8.9v1.8h14.6v-1.8c0-1.9,0.7-4.1,1.3-5c0.7-0.9,2-1.5,3.8-1.5c1.6,0,2.9,0.4,3.8,1.5c0.9,1,1.3,2.2,1.3,3.8
			c0,0.7-0.1,1.3-0.6,2c-0.4,0.9-1,1.8-1.6,2.5l-6.3,8.2c-1.2,1.6-2.2,3.2-2.8,4.7s-0.9,3.4-0.9,5.4v3.8h14.6v-3.1
			c0-0.6,0.3-1.2,0.4-1.8c0.3-0.6,0.6-1.2,0.9-1.6l6.4-8.3c1.3-1.8,2.3-3.5,3.2-5.3c0.9-1.9,1.3-4.1,1.3-6.6c0-2.9-0.6-5.7-1.6-8
			C947.2,65.4,945.7,63.4,943.8,61.8z M945.3,80.8c-0.7,1.6-1.8,3.1-2.8,4.5l-6.3,8.3c-0.6,0.7-1,1.6-1.5,2.6
			c-0.3,0.7-0.4,1.6-0.6,2.3h-7.6v-0.3c0-1.6,0.3-2.9,0.7-4.1c0.4-1.2,1.2-2.3,2.2-3.8l6.4-8.2c0.7-1,1.5-2,1.9-3.1
			c0.6-1.2,0.9-2.5,0.9-3.6c0-2.5-0.7-4.5-2.3-6.3s-3.8-2.6-6.4-2.6c-2.8,0-5,0.9-6.6,2.8c-1.2,1.3-1.8,3.5-2,5.4h-7.6
			c0.1-2.2,0.6-4.4,1.2-5.7c0.9-1.9,2-3.5,3.4-4.8c1.5-1.3,3.2-2.3,5.1-3.1c3.8-1.5,8.6-1.5,12.7,0c1.9,0.7,3.6,1.8,5.1,2.9
			c1.5,1.3,2.6,2.9,3.5,4.7c0.9,1.9,1.3,4.1,1.3,6.6C946.3,77.5,945.9,79.3,945.3,80.8z"/>
	</g>
</g>
</svg>
