<?xml version="1.0" encoding="utf-8"?>
<!-- Generator: Adobe Illustrator 18.1.0, SVG Export Plug-In . SVG Version: 6.00 Build 0)  -->
<svg version="1.1" id="Layer_1" xmlns="http://www.w3.org/2000/svg" xmlns:xlink="http://www.w3.org/1999/xlink" x="0px" y="0px"
	 width="180px" height="180px" viewBox="0 0 180 180" enable-background="new 0 0 180 180" xml:space="preserve">
<path fill="#00A1C1" stroke="#00A1C1" stroke-width="4" stroke-miterlimit="10" d="M158.8,14H66.9C59.5,14,53,19.1,53,26.6V37H23.7
	C16.3,37,10,43.4,10,50.9V113c0,7.4,6.3,13,13.7,13h9L21,163.8L62.4,126h53.2c7.4,0,13.4-5.5,13.4-13v-7.5l38,35.6L155.2,103h3.6
	c7.4,0,13.2-6.8,13.2-14.3V26.6C172,19.1,166.3,14,158.8,14z M123,113c0,4.5-2.9,8-7.4,8H60.3L32,147.3L40,121H23.7
	c-4.5,0-7.7-3.5-7.7-8V50.9c0-4.5,3.2-7.9,7.7-7.9h91.9c4.5,0,7.4,3.4,7.4,7.9V113z M167,88.7c0,4.5-3.7,8.3-8.2,8.3h-10.9l8,26.2
	l-26.9-25V50.9c0-7.4-6-13.9-13.4-13.9H59V26.6c0-4.5,3.5-8.6,7.9-8.6h91.9c4.5,0,8.2,4.1,8.2,8.6V88.7z"/>
</svg>
