<?xml version="1.0" encoding="utf-8"?>
<!-- Generator: Adobe Illustrator 18.1.0, SVG Export Plug-In . SVG Version: 6.00 Build 0)  -->
<svg version="1.1" id="Layer_1" xmlns="http://www.w3.org/2000/svg" xmlns:xlink="http://www.w3.org/1999/xlink" x="0px" y="0px"
	 width="180px" height="180px" viewBox="0 0 180 180" enable-background="new 0 0 180 180" xml:space="preserve">
<path fill="#00A1C1" d="M113.7,23.2c-2.4-0.6-4.9,0.9-5.4,3.3c-0.6,2.4,0.9,4.9,3.3,5.4c26,6.3,42,32.5,35.7,58.5
	c-0.6,2.4,0.9,4.9,3.3,5.4c0.4,0.1,0.7,0.1,1.1,0.1c2,0,3.9-1.4,4.4-3.4C163.5,61.8,144.5,30.7,113.7,23.2z M106.9,51.3
	c15.3,3.7,24.8,19.2,21.1,34.5c-0.6,2.4,0.9,4.9,3.3,5.4c0.4,0.1,0.7,0.1,1.1,0.1c2,0,3.9-1.4,4.4-3.4c4.9-20.2-7.6-40.5-27.7-45.4
	c-2.4-0.6-4.9,0.9-5.4,3.3C103,48.3,104.5,50.7,106.9,51.3z M136,139.2l-18-21.6c-3.2-5-10.5-6.6-16-3.4l-12.3,7.1L58.4,67.1
	L70.7,60c5.7-3.3,7.9-10.2,5.1-15.5L66,18.1c-0.1-0.2-0.2-0.5-0.3-0.7c-3-5.1-10.2-7-15.8-4l-15.9,5.2c-0.3,0.1-0.6,0.2-0.8,0.4
	c-9.8,5.6-14,18.9-11.9,37.3c2,17.1,9.2,37.2,20.3,56.4c19.7,34,46.2,56.9,66.1,56.9c4,0,7.7-0.9,10.9-2.8c0.2-0.1,0.5-0.3,0.7-0.5
	l12.7-10.8c5.5-3.4,7.5-10.4,4.4-15.7C136.3,139.6,136.1,139.4,136,139.2z M127.1,148c-0.2,0.1-0.5,0.3-0.7,0.5l-12.7,10.8
	c-1.7,0.9-3.8,1.4-6,1.4c-13.9,0-38.4-18-58.3-52.4C38.9,90,32.1,71.3,30.3,55.3c-1.6-14.2,0.9-24.4,7-28.3l15.8-5.2
	c0.3-0.1,0.6-0.2,0.9-0.4c1.3-0.8,3-0.6,3.7,0.3l9.7,26.2c0.1,0.2,0.2,0.5,0.3,0.7c0.6,1.1-0.1,2.8-1.5,3.6L50,61.6
	c-2.2,1.2-2.9,4-1.6,6.2l35.8,62c0.6,1,1.6,1.8,2.7,2.1c1.2,0.3,2.4,0.1,3.4-0.5l16.2-9.4c1.4-0.8,3.3-0.6,3.9,0.5
	c0.1,0.2,0.3,0.4,0.4,0.6l17.8,21.4C129.1,145.7,128.4,147.2,127.1,148z"/>
</svg>
