<?xml version="1.0" encoding="utf-8"?>
<!-- Generator: Adobe Illustrator 18.1.0, SVG Export Plug-In . SVG Version: 6.00 Build 0)  -->
<svg version="1.1" id="Isolation_Mode" xmlns="http://www.w3.org/2000/svg" xmlns:xlink="http://www.w3.org/1999/xlink" x="0px"
	 y="0px" width="180px" height="180px" viewBox="0 0 180 180" enable-background="new 0 0 180 180" xml:space="preserve">
<g>
	<g>
		<path fill="#00A1C1" stroke="#00A1C1" stroke-width="2.7029" stroke-miterlimit="10" d="M90.5,113.3c-0.4,0-0.8-0.1-1.2-0.3
			L7.7,75.9c-1-0.5-1.6-1.4-1.6-2.5c0-1.1,0.6-2.1,1.6-2.5l81.6-37.2c0.7-0.3,1.6-0.3,2.3,0l81.6,37.2c1,0.5,1.6,1.4,1.6,2.5
			c0,1.1-0.6,2.1-1.6,2.5L91.7,113C91.3,113.2,90.9,113.3,90.5,113.3z M15.6,73.3l74.9,34.1l74.9-34.1L90.5,39.2L15.6,73.3z"/>
	</g>
	<g>
		<path fill="#00A1C1" stroke="#00A1C1" stroke-width="3" stroke-miterlimit="10" d="M90.5,148.6c-46.1,0-47-17.5-47-19.5V92.8
			c0-1.5,1-2.8,2.5-2.8c1.5,0,2.5,1.2,2.5,2.8v36.3c0,0.1,1.5,13.9,42,13.9s42-13.9,42-14V92.8c0-1.5,1-2.8,2.5-2.8
			c1.5,0,2.5,1.2,2.5,2.8v36.3C137.5,131.1,136.6,148.6,90.5,148.6z"/>
	</g>
	<g>
		<path fill="#00A1C1" stroke="#00A1C1" stroke-width="3" stroke-miterlimit="10" d="M157,129.1c-1.5,0-2.5-1.2-2.5-2.8V81.7
			c0-1.5,1-2.8,2.5-2.8c1.5,0,2.5,1.2,2.5,2.8v44.6C159.5,127.8,158.5,129.1,157,129.1z"/>
	</g>
	<g>
		<path fill="#00A1C1" stroke="#00A1C1" stroke-width="3" stroke-miterlimit="10" d="M160.2,124.5h-5.6c-1.5,0-2.8-1-2.8-2.5
			c0-1.5,1.2-2.5,2.8-2.5h5.6c1.5,0,2.8,1,2.8,2.5C163,123.5,161.8,124.5,160.2,124.5z"/>
	</g>
	<g>
		<path fill="#00A1C1" stroke="#00A1C1" stroke-width="3" stroke-miterlimit="10" d="M160.2,116.5h-5.6c-1.5,0-2.8-1-2.8-2.5
			c0-1.5,1.2-2.5,2.8-2.5h5.6c1.5,0,2.8,1,2.8,2.5C163,115.5,161.8,116.5,160.2,116.5z"/>
	</g>
</g>
</svg>
