<?xml version="1.0" encoding="utf-8"?>
<!-- Generator: Adobe Illustrator 18.1.0, SVG Export Plug-In . SVG Version: 6.00 Build 0)  -->
<svg version="1.1" id="Layer_1" xmlns="http://www.w3.org/2000/svg" xmlns:xlink="http://www.w3.org/1999/xlink" x="0px" y="0px"
	 width="180px" height="180px" viewBox="207.6 330.9 180 180" enable-background="new 207.6 330.9 180 180" xml:space="preserve">
<g id="Isolation_Mode" display="none">
	<path display="inline" fill="#00A1C1" d="M150.5,448.1c-52.3,52.3-48.3,140.6,8.3,197.1c56.9,56.9,145.2,60.5,197.1,8.3
		C408.1,601.2,529.5,462,435.5,368C342,274.4,202.7,395.8,150.5,448.1z M287.4,374c24.5-11.6,47-17.5,67.1-17.5c1.3,0,2.6,0,3.6,0
		c19.8,0.7,37.4,7.3,53.2,20.2l-19.2,19.2c-13.2-6-29.1-3.6-40,7.3c-10.9,10.9-13.2,26.8-6.9,40l-46.6,46.6
		c-24.1-25.5-43.3-55.6-57.2-89C256,390.9,271.5,381.3,287.4,374z M388.9,439.8c-3.6,3.6-8.6,5.3-13.2,5c-3.6-0.3-7.6-2-10.3-5
		c-3.3-3.3-5-7.9-5-12.2c0-4,1.7-8.3,5-11.2c3-3,7.3-4.6,11.2-5c4.3,0,8.9,1.3,12.2,5c3,3,4.6,6.6,5,10.3
		C394.2,431.5,392.6,436.2,388.9,439.8z M340.3,637.6c-19.5,19.5-46,30.1-75.1,30.1c-33.1,0-65.8-13.9-90.3-38.4
		c-48-48-51.6-122-8.3-165.4c12.9-12.9,32.4-31.1,55.9-49.3c16.5,37.4,39,70.8,67.8,99.5s61.8,51.3,99.5,67.8
		C371.4,605.2,352.9,625,340.3,637.6z M430.3,516.9c-7.6,15.9-16.9,31.4-26.8,46c-33.4-13.9-63.5-33.1-89-56.9l46.3-46.3
		c13.2,6.9,30.1,4.6,41.3-6.3c11.2-11.2,13.2-28.1,6.3-41.3l18.9-18.9c12.9,15.9,19.5,33.1,20.2,53.2
		C448.4,466.9,442.8,491.1,430.3,516.9z M459.7,235.4c-3.6-11.2-5.3-21.8-4.6-31.7c1-19.8,9.9-34.7,16.2-44.3
		c6.3-9.6,10.6-14.6,10.6-14.6s-5.3,3.6-13.6,12.2c-7.9,8.6-20.2,22.5-24.8,45c-2.3,11.2-2,24.1,0.7,37c2.6,12.9,6.9,26.1,10.6,39.4
		c3.6,13.2,5.6,26.5,2.6,38.7c-2.6,12.2-10.9,24.1-21.5,34.7l17.5,17.5c12.6-12.9,23.8-29.1,26.8-48c3.3-18.5-1.3-35.7-6.3-49.3
		C468.6,258.6,463,246.7,459.7,235.4z"/>
</g>
<g id="Layer_2" display="none">
	<g display="inline">
		<path fill="#00A1C1" d="M70.4,545.3h452.1c6.6,0,13.2-6.3,13.2-12.9V256.9c0-6.6-6.6-12.6-13.2-12.6H70.4c-6.6,0-10.9,6-10.9,12.6
			v275.5C59.5,539,63.8,545.3,70.4,545.3z M89.3,274.1H506v241.4H89.3V274.1z"/>
		<path fill="#00A1C1" d="M578.4,558.5H383.3c-0.3,3.3-3.6,6.6-7.9,6.6H217.6c-4,0-7.3-3.3-7.6-6.6H14.9c0,0-1.3,0.7-1.3,1.3v8.6
			c0,14.2,12.6,26.5,26.8,26.5h512.9c14.2,0,25.8-12.2,25.8-26.5v-8.6C578.7,558.9,578.4,558.5,578.4,558.5z"/>
		<polygon fill="#00A1C1" points="277.8,324 315.5,468.6 340.3,422.9 385.6,467.9 421.7,432.2 376.3,386.9 422,361.7 		"/>
	</g>
</g>
<g id="Layer_3">
	<g>
		<g>
			<g>
				<g>
					<g>
						<path fill="#FFFFFF" d="M286.8,482.9h-7.7c-1.4,0-3.1,1.7-3.1,3v3c0,1.4,1.8,3.1,3.1,3.1h7.7c1.4,0,3.2-1.8,3.2-3.1v-3
							C290,484.6,288.2,482.9,286.8,482.9z"/>
						<path fill="#00A1C1" d="M332.3,475.9H234v-130h99v59.4c5,0.1,7.5,3.1,8.2,3c0.5-0.1,0.8-0.8,2.8-1.5v-62.7c0-5.6-5.5-10-11-10
							H233c-5.6,0-10,4.5-10,10v144.5c0,5.6,4.5,10.4,10,10.4h99.9c5.6,0,11.1-4.9,11.1-10.4v-23.9l-11,2.5v10.2L332.3,475.9z
							 M290,488.9c0,1.4-1.9,3-3.2,3h-7.7c-1.4,0-3.1-1.7-3.1-3v-3c0-1.4,1.8-3.1,3.1-3.1h7.7c1.4,0,3.2,1.8,3.2,3.1V488.9z"/>
						<path fill="#00A1C1" d="M285,389.9h-17v-29h29v17c0,0,0.4,0,0.6,0c2.1,0,5.4,0,6.4,1v-21.6c0-1.8-2.1-3.4-3.9-3.4h-35.7
							c-1.8,0-3.4,1.7-3.4,3.4v35.6c0,1.8,1.7,3,3.4,3h22c-0.6-3-0.9-3.7-1.2-4.4C285.1,391,285,389.9,285,389.9z"/>
					</g>
					<g>
						<path fill="#00A1C1" d="M293.3,367.7c0,1.1-0.5,2-1.4,3l-0.1,0.1l-8,8.5c-1.7,1.8-3.2,3.2-4.4,4.1c-1.2,0.9-2,1.4-2.6,1.4
							c-0.5,0-1.2-0.2-1.9-0.7c-0.8-0.5-1.3-0.9-1.5-1.5c-0.2-0.5-0.4-1.3-0.6-2.7c-0.1-1.4-0.2-3-0.2-4.5c0-0.9,0.4-1.7,1.1-2.5
							c0.7-0.7,1.3-1.2,2.2-1.2c0.8,0,1.3,0.8,1.3,2.4c0,0.2,0,0.4,0,0.4c0,1.2,0.6,2,0.8,2.5c0.2,0.5,0.6,0.7,0.8,0.7
							c0.1,0,0.4-0.1,0.8-0.5c0.4-0.2,0.9-0.7,1.3-1.2l8.3-8.2c0.7-0.7,1.3-1.2,1.9-1.5c0.6-0.4,1.1-0.6,1.4-0.6
							c0.2,0,0.5,0.1,0.6,0.4c0.1,0.2,0.2,0.6,0.2,1.1L293.3,367.7L293.3,367.7z"/>
					</g>
				</g>
			</g>
			<polygon fill="#FFFFFF" points="349,500.7 322,502.3 311.6,463.3 349,462.6 			"/>
			<path fill="#00A1C1" d="M362.5,442.3l-7.6-28.1c-1.2-4.4-5.9-7-10.5-5.7c-0.6,0.1-1.2,0.5-1.7,0.7c-0.8,0.5-1.7,0.9-2.4,1.7
				c-0.7-0.9-1.5-1.8-2.6-2.4c-1.1-0.6-2.2-1.1-3.4-1.2c-1.1-0.1-2.2-0.1-3.3,0.2c-0.5,0.1-0.8,0.2-1.2,0.5c-1.5,0.7-3,1.8-3.8,3.1
				c-2-1.5-4.8-2.1-7.6-1.4c-1.4,0.4-2.7,1.1-3.7,2l-1.9-6.7l-1.2-4.4l-3.5-13.2c-1.2-4.3-5.8-6.7-10.4-5.4
				c-4.6,1.3-7.4,5.7-6.3,9.9l3.5,13.2l1.2,4.4l2.8,10.6l1.2,4.4l5.6,20.7l-4.8-2.2c-0.9-0.4-9-3.3-14.2-1.9
				c-0.9,0.2-1.8,0.6-2.5,1.2c-3.3,2.4-3.4,5.1-3.2,6.5c0.2,2,1.7,3.9,3.8,5.2c0.7,0.5,1.5,0.8,2.4,1.2c1.9,0.7,3.7,1.2,5.4,1.5
				c0.2,0,0.5,0.1,0.6,0.1c2.7,0.6,4.8,1.1,6.1,2.5c8,9.3,16.8,10.9,20.7,11l0.8,3.2l4.4-1.2l-1.3-4.8c-0.2-1.1-1.3-1.8-2.5-1.7
				c-0.4,0-10,0.9-18.8-9.3c-2.2-2.6-5.3-3.3-8.6-3.9c-1.8-0.4-3.5-0.7-5.3-1.4c-2.2-0.8-3.2-2-3.3-2.7c-0.1-0.9,0.9-1.8,1.4-2.1
				c0.2-0.1,0.5-0.4,0.9-0.4c3.2-0.8,9.2,0.9,11.2,1.7l6.3,2.8c0.5,0.2,1.1,0.2,1.5,0.1l2.4-0.6c1.2-0.4,1.9-1.5,1.7-2.8l-15.2-56.6
				c-0.5-1.8,0.8-3.8,3.1-4.4c2.1-0.6,4.4,0.4,4.8,2.2l8.5,31.6c0.4,1.2,1.5,1.9,2.8,1.7c1.2-0.4,1.9-1.5,1.7-2.8
				c-0.5-2,0.8-4,3-4.6c2.1-0.6,4.4,0.6,4.8,2.5l0.4,1.2c0.4,1.2,1.5,1.9,2.8,1.7c1.2-0.4,1.9-1.5,1.7-2.8c-0.5-2,0.8-4,3-4.6
				s4.4,0.5,4.8,2.5l0.5,1.9c0.4,1.2,1.5,1.9,2.8,1.7l0.5-0.1c0.8-0.2,1.5-0.9,1.7-1.8c0.2-1.5,1.4-2.7,3.1-3.2
				c2.1-0.6,4.4,0.6,4.8,2.5l7.6,28.1c1.7,6,0.7,11-1.1,12.2c-0.8,0.6-1.3,1.5-0.9,2.5l1.4,5.2l4.4-1.2l-1.1-3.8
				C363.7,455.1,364.4,449,362.5,442.3z"/>
			<path fill="#00A1C1" d="M357.6,463.3l-32,8.6l-4.4,1.2l-2.4,0.6c-1.2,0.4-1.9,1.5-1.7,2.8l0.5,1.9l1.2,4.4l1.7,6.3l1.2,4.4
				l3.3,12.4c0.4,1.2,1.5,1.9,2.8,1.7c1.2-0.4,1.9-1.5,1.7-2.8l-7.3-27.2l42.2-11.3l7.3,27.2c0.4,1.2,1.5,1.9,2.8,1.7
				c1.2-0.4,1.9-1.5,1.7-2.8l-7.9-29.4c-0.4-1.2-1.5-1.9-2.8-1.7L362,462L357.6,463.3z"/>
		</g>
	</g>
</g>
</svg>
